<svg width="26" height="26" viewBox="0 0 26 26" fill="none" xmlns="http://www.w3.org/2000/svg">
<rect width="26" height="26" rx="13" fill="white"/>
<path d="M5.49651 13.8703L4.581 14.6482C4.69008 14.7664 4.82286 14.8622 4.97139 14.9299C5.11992 14.9976 5.28115 15.0359 5.44542 15.0423C5.60969 15.0487 5.77362 15.0232 5.92739 14.9673C6.08116 14.9115 6.22161 14.8263 6.34033 14.717L5.49651 13.8703ZM8.98421 12.2816C9.20731 12.0638 9.33327 11.7711 9.33533 11.4656C9.33739 11.1601 9.2154 10.8658 8.99525 10.6453C8.77511 10.4248 8.47418 10.2955 8.15638 10.2848C7.83858 10.2741 7.52896 10.3829 7.2933 10.588L8.98421 12.2816ZM4.16561 10.6569C4.06131 10.535 3.93251 10.4345 3.78688 10.3615C3.64126 10.2885 3.48182 10.2445 3.31808 10.232C3.15434 10.2196 2.98967 10.239 2.83392 10.2891C2.67817 10.3392 2.53453 10.4189 2.41158 10.5236C2.28864 10.6282 2.18892 10.7556 2.11839 10.8982C2.04786 11.0407 2.00796 11.1954 2.00107 11.3531C1.99419 11.5108 2.02047 11.6682 2.07833 11.8159C2.1362 11.9636 2.22447 12.0985 2.33786 12.2127L4.16561 10.6569ZM17.8004 8.31845C17.9093 8.4317 18.0403 8.52324 18.186 8.58784C18.3318 8.65244 18.4893 8.68883 18.6496 8.69493C18.81 8.70104 18.97 8.67674 19.1206 8.62342C19.2711 8.5701 19.4093 8.48881 19.5272 8.38418C19.645 8.27956 19.7403 8.15366 19.8075 8.01365C19.8748 7.87365 19.9126 7.7223 19.919 7.56823C19.9253 7.41417 19.9001 7.26041 19.8446 7.11574C19.7891 6.97107 19.7045 6.83831 19.5956 6.72506L17.8004 8.31845ZM13.0991 4.00001C8.23487 4.00001 4.27638 7.76123 4.27638 12.4209H6.71989C6.71989 9.07601 9.56577 6.34784 13.0991 6.34784V4.00001ZM4.27638 12.4209V13.8703H6.71989V12.4209H4.27638ZM6.34359 14.717L8.98584 12.2816L7.29493 10.588L4.65268 13.0219L6.34359 14.717ZM6.41201 13.0908L4.16561 10.6569L2.33786 12.2127L4.581 14.6482L6.41201 13.0908ZM19.5956 6.72506C18.7671 5.86382 17.7633 5.177 16.6446 4.70797C15.5259 4.23894 14.3181 3.99788 13.0975 4.00001V6.34784C13.9812 6.34576 14.8559 6.51996 15.6659 6.85944C16.476 7.19891 17.204 7.69626 17.8037 8.32001L19.5956 6.72506ZM20.5502 12.1297L21.4624 11.3503C21.3532 11.2322 21.2204 11.1365 21.0718 11.0689C20.9232 11.0013 20.7619 10.9632 20.5977 10.957C20.4334 10.9507 20.2695 10.9763 20.1158 11.0323C19.9621 11.0883 19.8217 11.1736 19.7031 11.283L20.5502 12.1297ZM17.0657 13.7169C16.832 13.9327 16.6971 14.229 16.6907 14.5404C16.6843 14.8519 16.8069 15.153 17.0315 15.3776C17.2562 15.6022 17.5645 15.7318 17.8886 15.7379C18.2128 15.7441 18.5262 15.6263 18.7599 15.4104L17.0657 13.7169ZM21.8876 15.3447C22.1056 15.5677 22.4055 15.7002 22.7236 15.7139C23.0417 15.7275 23.3528 15.6214 23.5906 15.418C23.8284 15.2145 23.9742 14.9299 23.9969 14.6248C24.0196 14.3196 23.9174 14.018 23.7121 13.7842L21.8876 15.3447ZM8.21532 17.7035C7.99237 17.4817 7.68755 17.3531 7.36674 17.3455C7.04592 17.3379 6.73487 17.4518 6.50079 17.6628C6.26671 17.8737 6.12841 18.1647 6.11576 18.4728C6.10311 18.7809 6.21713 19.0814 6.43319 19.3094L8.21532 17.7035ZM12.9199 22C17.7955 22 21.7719 18.2435 21.7719 13.5791H19.3284C19.3284 16.9209 16.4728 19.6522 12.9199 19.6522V22ZM21.7719 13.5791V12.1297H19.3284V13.5791H21.7719ZM19.7031 11.283L17.0657 13.7169L18.7599 15.4104L21.3956 12.9765L19.7031 11.283ZM19.6379 12.9108L21.886 15.3431L23.7137 13.7842L21.4624 11.3503L19.6379 12.9108ZM6.43156 19.3078C7.26355 20.159 8.26857 20.837 9.38436 21.2998C10.5001 21.7627 11.703 22.0004 12.9183 21.9984V19.6506C11.0563 19.6506 9.38332 18.8993 8.21369 17.7019L6.43156 19.3078Z" fill="#2C3138"/>
</svg>
