<svg width="115" height="35" viewBox="0 0 115 35" fill="none" xmlns="http://www.w3.org/2000/svg">
<g clip-path="url(#clip0_231_2315)">
<path d="M25.6411 0H16.7372V0.0157771C14.8243 0.0851965 12.9896 0.460692 11.2802 1.1044C9.4581 1.79228 7.78 2.77993 6.3054 4.00739C4.50207 5.50938 3.00555 7.37423 1.9223 9.48837C0.695034 11.8865 0 14.6128 0 17.5C0 26.9537 7.43875 34.6497 16.7372 34.9842V35H25.6411V0Z" fill="#FFA015"/>
<path d="M43.017 17.5C43.017 27.1651 35.2433 35 25.6537 35C16.0641 35 8.29034 27.1651 8.29034 17.5C8.29034 14.6128 8.98538 11.8865 10.2126 9.48837C11.2959 7.37423 12.7924 5.51253 14.5957 4.00739C16.0703 2.77993 17.7453 1.79228 19.5706 1.1044C21.3958 0.416516 23.5122 0 25.6537 0C35.2433 0 43.017 7.83493 43.017 17.5Z" fill="#FF3C00"/>
<path d="M31.8495 18.2037L29.4294 16.7458L24.4452 19.753L26.8653 21.2108L28.105 20.4629L30.6097 21.9933L25.663 24.9973L15.7416 19.0146V21.9302L23.2461 26.4551L25.663 27.9161L35.5407 21.9365L30.6034 18.9578L31.8495 18.2037Z" fill="white"/>
<path d="M19.5048 16.7711L21.9249 18.229L26.8997 15.2281L24.4796 13.7703L23.2398 14.5182L20.6976 12.9815L25.6787 10.0028L33.1456 14.5024L35.5626 13.0414L25.6787 7.08398L23.2617 8.54179L18.2493 11.5647L15.7666 13.0414L20.7571 16.017L19.5048 16.7711Z" fill="white"/>
<path d="M23.7094 17.7745L23.8346 17.8503L25.1903 18.677L27.6667 17.1845L26.1765 16.2883L23.7094 17.7745Z" fill="white"/>
<path d="M52.2747 28.4431C51.8771 28.4431 51.5327 28.3042 51.2478 28.0297C50.9566 27.7489 50.8095 27.4018 50.8095 26.9947V14.6949C50.8095 14.2941 50.9598 13.9376 51.2478 13.6599C51.5327 13.3854 51.8802 13.2465 52.2747 13.2465C52.6692 13.2465 53.0167 13.3885 53.2953 13.6662C53.574 13.947 53.7117 14.291 53.7117 14.6949V26.9947C53.7117 27.3986 53.5708 27.7425 53.2953 28.0234C53.0167 28.3042 52.6754 28.4462 52.2747 28.4462V28.4431ZM52.2747 11.0156C51.8019 11.0156 51.3887 10.8421 51.0506 10.4981C50.7093 10.1574 50.5371 9.74084 50.5371 9.26437C50.5371 8.7879 50.7124 8.37454 51.0537 8.04006C51.3918 7.70874 51.8019 7.5415 52.2716 7.5415C52.7412 7.5415 53.1513 7.7119 53.4832 8.04322C53.815 8.37769 53.9841 8.7879 53.9841 9.26437C53.9841 9.74084 53.8182 10.151 53.4894 10.495C53.1576 10.8421 52.7474 11.0156 52.2747 11.0156Z" fill="white"/>
<path d="M62.0208 28.4432C61.6232 28.4432 61.2694 28.2918 60.9939 28.0015C60.7216 27.7143 60.5838 27.3672 60.5838 26.9665V8.22324C60.5838 7.81935 60.7247 7.47541 61.0002 7.19457C61.2757 6.91374 61.6201 6.7749 62.0208 6.7749H67.2211C68.5548 6.7749 69.8196 7.09991 70.9811 7.74362C72.1427 8.38733 73.0944 9.28347 73.8082 10.4068C74.5221 11.5333 74.9259 12.7828 75.0011 14.1302C75.0731 15.1399 75.1106 16.3138 75.1106 17.6106C75.1106 18.9075 75.0731 20.0656 75.0011 21.0974C74.9259 22.4384 74.5189 23.688 73.7926 24.805C73.0694 25.9157 72.1207 26.8087 70.9717 27.4619C69.8165 28.1151 68.5548 28.4464 67.2211 28.4464H62.0208V28.4432ZM67.2211 25.7927C68.0852 25.7927 68.8898 25.5686 69.613 25.1237C70.3425 24.6756 70.9373 24.0698 71.3819 23.3283C71.8265 22.5836 72.0769 21.7695 72.127 20.9081C72.199 19.9109 72.2366 18.8034 72.2366 17.6106C72.2366 16.4179 72.199 15.2788 72.1301 14.3195C72.08 13.4518 71.8265 12.6314 71.3819 11.8772C70.9373 11.1262 70.3425 10.5204 69.6161 10.0849C68.8929 9.6495 68.0883 9.42862 67.2242 9.42862H63.461V25.7958H67.2242L67.2211 25.7927Z" fill="white"/>
<path d="M83.0127 28.4432C82.6151 28.4432 82.2613 28.2918 81.9858 28.0015C81.7134 27.7143 81.5757 27.3672 81.5757 26.9665V8.22324C81.5757 7.81935 81.7166 7.47541 81.9921 7.19457C82.2676 6.91374 82.612 6.7749 83.0127 6.7749H93.4946C93.8515 6.7749 94.1708 6.90743 94.4182 7.15355C94.6655 7.40283 94.7939 7.72469 94.7939 8.08441C94.7939 8.44412 94.6686 8.76282 94.4244 9.02157C94.1771 9.28347 93.8546 9.42231 93.4915 9.42231H84.4748V15.7458H92.9749C93.338 15.7458 93.6574 15.8846 93.9079 16.1465C94.1552 16.4084 94.2773 16.724 94.2773 17.0868C94.2773 17.4497 94.1521 17.7369 93.9079 17.9988C93.6605 18.2607 93.338 18.3995 92.9749 18.3995H84.4748V25.7927H94.0112C94.3681 25.7927 94.6905 25.9252 94.9347 26.1713C95.1821 26.4206 95.3104 26.7424 95.3104 27.1053C95.3104 27.4682 95.1852 27.7837 94.941 28.0425C94.6937 28.3044 94.3712 28.4432 94.008 28.4432H83.0065H83.0127Z" fill="white"/>
<path d="M113.538 28.2254C113.046 28.2254 112.63 28.0045 112.339 27.588L107.333 19.7878L102.361 27.5722C102.057 28.0045 101.644 28.2254 101.149 28.2254C100.883 28.2254 100.617 28.1528 100.357 28.0108C100.345 28.0045 100.332 27.9951 100.32 27.9856C99.9065 27.6921 99.6873 27.2725 99.6873 26.7771C99.6873 26.4899 99.775 26.2186 99.9503 25.9661L105.73 17.3897L99.9472 8.83531C99.7687 8.52923 99.6873 8.25787 99.6873 8.00228C99.6873 7.50688 99.9065 7.0872 100.32 6.79375C100.332 6.78428 100.345 6.77482 100.36 6.76851C100.62 6.62651 100.886 6.55394 101.153 6.55394C101.644 6.55394 102.06 6.77482 102.352 7.19133L107.333 14.9915L112.329 7.20395C112.63 6.77166 113.056 6.55078 113.566 6.55078C113.864 6.55078 114.133 6.62967 114.361 6.78428C114.784 7.0872 115.003 7.50372 115.003 7.99912C115.003 8.25156 114.922 8.52608 114.759 8.80691L108.961 17.3834L114.743 25.963C114.915 26.2091 115.003 26.4836 115.003 26.7676C115.003 27.263 114.784 27.6827 114.371 27.9761C114.101 28.1402 113.829 28.2159 113.538 28.2159V28.2254Z" fill="white"/>
</g>
<defs>
<clipPath id="clip0_231_2315">
<rect width="115" height="35" fill="white"/>
</clipPath>
</defs>
</svg>
